<?xml version="1.0" encoding="UTF-8" standalone="no"?>
<!DOCTYPE svg PUBLIC "-//W3C//DTD SVG 1.1//EN" "http://www.w3.org/Graphics/SVG/1.1/DTD/svg11.dtd">
<svg xmlns="http://www.w3.org/2000/svg" version="1.1" viewBox="0.00 0.00 500.00 356.00">
<path fill="#e0decf" d="
  M 197.76 248.48
  A 0.20 0.20 0.0 0 0 198.06 248.31
  Q 198.10 245.12 198.51 241.82
  Q 198.65 240.76 198.65 235.25
  Q 198.71 136.80 198.56 111.33
  Q 198.55 110.08 198.21 109.30
  A 0.95 0.94 -34.6 0 0 196.68 109.02
  L 78.74 228.30
  Q 78.33 228.72 77.82 228.43
  Q 76.46 227.68 76.13 227.35
  Q 56.25 207.21 30.58 181.53
  Q 28.05 179.01 27.05 177.46
  A 0.70 0.68 -43.5 0 1 27.08 176.65
  Q 28.15 175.24 28.94 174.45
  Q 129.08 73.37 180.47 21.68
  C 184.63 17.50 191.56 9.91 197.68 4.53
  A 2.75 2.74 -65.7 0 1 199.50 3.84
  L 270.44 3.84
  A 0.67 0.67 0.0 0 1 271.11 4.51
  L 271.11 140.51
  A 1.28 1.28 0.0 0 0 272.33 141.79
  Q 283.48 142.37 295.97 142.22
  Q 295.99 142.22 303.04 141.95
  Q 310.56 141.66 317.00 142.10
  Q 321.75 142.43 327.85 142.00
  Q 332.89 141.65 338.66 141.64
  Q 414.02 141.55 470.86 141.65
  A 1.06 1.06 0.0 0 1 471.91 142.71
  L 471.91 208.40
  A 0.97 0.96 -90.0 0 1 470.95 209.37
  L 271.70 209.37
  A 0.53 0.52 0.0 0 0 271.17 209.89
  L 271.17 352.30
  A 0.86 0.85 -90.0 0 1 270.32 353.16
  Q 221.87 353.17 202.00 353.17
  C 198.18 353.17 197.39 352.17 194.64 349.41
  Q 193.87 348.64 143.58 298.14
  Q 138.95 293.50 137.84 288.09
  Q 136.86 283.30 136.88 278.27
  Q 137.07 234.58 137.06 195.56
  Q 137.06 192.92 138.41 191.72
  Q 139.80 190.50 141.10 191.81
  Q 153.71 204.46 192.99 243.97
  C 194.29 245.28 195.67 247.31 197.76 248.48
  Z"
/>
<path fill="#e0decf" d="
  M 470.50 78.29
  Q 432.43 78.29 368.50 78.29
  Q 360.02 78.29 355.33 73.65
  Q 335.69 54.19 308.68 26.87
  Q 295.33 13.37 292.54 10.28
  Q 290.64 8.17 290.37 6.68
  Q 290.28 6.17 290.55 5.73
  Q 291.21 4.65 293.50 4.65
  Q 296.31 4.65 468.25 4.56
  Q 469.01 4.56 471.02 4.80
  Q 471.78 4.88 471.78 5.65
  L 471.78 77.00
  A 1.29 1.28 90.0 0 1 470.50 78.29
  Z"
/>
<path fill="#e0decf" d="
  M 470.40 353.96
  Q 432.39 353.96 368.56 353.95
  Q 360.09 353.95 355.41 349.31
  Q 335.80 329.88 308.84 302.60
  Q 295.51 289.12 292.72 286.04
  Q 290.83 283.93 290.56 282.44
  Q 290.47 281.93 290.74 281.49
  Q 291.40 280.42 293.68 280.42
  Q 296.49 280.42 468.16 280.34
  Q 468.92 280.34 470.93 280.58
  Q 471.68 280.66 471.68 281.43
  L 471.68 352.67
  A 1.29 1.28 -90.0 0 1 470.40 353.96
  Z"
/>
</svg>
