<svg data-v-03b02474="" xmlns="http://www.w3.org/2000/svg" width="24.268" height="24.847" viewBox="0 0 24.268 24.847"><g id="Group_13" data-name="Group 13" transform="translate(-253.238 -514.118)"><g id="Group_12" data-name="Group 12"><path id="Path_14" data-name="Path 14" d="M277.343,524.272s.163,1.739.163,2.314c0,.607-.163,2.417-.163,2.417l0,.009a11.154,11.154,0,0,1-3.4,6.914l-4.009-3.019a7.767,7.767,0,0,0,.865-.666,5.329,5.329,0,0,0,1.653-3.229H265.68v-4.74h11.663Z" fill="#4386f7"></path><path id="Path_15" data-name="Path 15" d="M273.995,517.368l-3.567,3.511a7.292,7.292,0,0,0-4.659-1.859,7.565,7.565,0,0,0-7.144,5.082l-4.072-3.066a12.351,12.351,0,0,1,19.434-3.675Z" fill="#ee4131"></path><path id="Path_16" data-name="Path 16" d="M273.939,535.926c-.013.012-.027.022-.04.035a12.582,12.582,0,0,1-19.363-3.85l4.078-3.072a7.568,7.568,0,0,0,11.316,3.868Z" fill="#33a951"></path><path id="Path_17" data-name="Path 17" d="M258.614,529.039l-4.078,3.072a12.389,12.389,0,0,1,.017-11.075l4.072,3.066a7.593,7.593,0,0,0-.011,4.937Z" fill="#ffbe00"></path></g></g></svg>